<?xml version="1.0" encoding="UTF-8"?>
<svg id="Layer_2" data-name="Layer 2" xmlns="http://www.w3.org/2000/svg" viewBox="0 0 207.25 207.25">
  <defs>
    <style>
      .cls-1 {
        fill: #fff;
        stroke: #757efc;
        stroke-miterlimit: 10;
        stroke-width: .25px;
      }

      .cls-2 {
        fill: #757efc;
      }

      .cls-2, .cls-3 {
        stroke-width: 0px;
      }

      .cls-3 {
        fill: #353641;
      }
    </style>
  </defs>
  <g id="Layer_1-2" data-name="Layer 1">
    <rect class="cls-3" width="207.25" height="207.25" rx="54.59" ry="54.59"/>
    <rect class="cls-2" x="2.53" width="202.2" height="202.2" rx="54.59" ry="54.59"/>
    <path class="cls-3" d="M177.22,106.26c-.44-4.84-1.65-16.36-10.72-26.39-1.71-1.89-14.37-15.52-29.07-13.4-2.6.37-4.94,1.2-7.07,2.21,0,0,0,0,0,0-.03.02-.06.03-.1.05-.73.35-5.65,3.13-6.8,3.88-2.9,1.87-4.22,3.04-5.51,2.58-1.5-.53-1.98-2.89-2.15-4.23-.02-2.34.02-2.53-.11-3.56-1.5-11.39-8.97-19.69-8.97-19.69-7.91-8.79-17.89-10.79-20.82-11.34-12.86-2.39-22.91,2.63-26.59,4.54-12.73,6.59-18.47,17.39-21.66,23.4-8.67,16.32-7.98,31.75-7.61,40.09.33,7.46.96,18.75,7.42,31.33,2.44,4.75,7.17,13.7,17.32,21.03,4.09,2.95,13.43,9.7,26.8,9.69,4.16,0,14.38,0,22.56-6.6,4.74-3.81,5.78-7.4,10.11-8.04,5.01-.74,7,3.58,13.5,5.77,9.18,3.09,18.32-1.11,23.09-3.3,11.47-5.26,17.13-14.26,19.38-17.93,8.09-13.25,7.35-26.33,7.01-30.1ZM148.36,130.17c-1.64,1.62-9.38,8.82-18.55,7.42-10.26-1.57-12.22-12.38-19.38-11.75-6.4.56-6.45,9.34-16.08,14.84-6.7,3.83-15.73,4.75-22.88,2.06-14.05-5.28-17.71-23.26-19.48-31.95-1.13-5.55-5.36-26.37,7.22-42.57,3.18-4.1,10.86-13.99,21.34-12.68,8.88,1.11,15.92,9.79,16.9,17.93.82,6.75-2.65,12.09-8.86,21.65-8.32,12.79-13.47,14.36-14.64,22.68-.19,1.33-1.43,11.18,4.62,15.46,3.53,2.5,9.16,2.81,13.21.41,6.34-3.75,3.52-10.95,11.18-29.26,2.6-6.21,4.19-10,5.83-12.27.09-.09.17-.18.26-.26.58-.52,1.12-.71,1.49-.78,2.08-.43,4.71,1.5,6.3,4.95.75,1.66,1.55,3.66,2.46,5.96,1.85,4.67,3.25,8.19,4.12,13.42,1.54,9.25-.5,12.23,2.37,15.05,2.54,2.49,7.17,3.14,10.41,1.86.54-.22,1.73-.7,2.76-1.86,1.85-2.08,1.83-4.8,1.82-5.87-.07-8.13-12.42-16.96-11.38-25.67.71-5.91,7.55-11.38,13.19-11.03,7.94.5,12.27,12.46,13.19,19.38.24,1.82,1.65,13.93-7.42,22.88Z"/>
    <path class="cls-1" d="M173.68,106.01c-.42-4.61-1.57-15.57-10.2-25.12-1.63-1.8-13.68-14.77-27.67-12.75-2.47.36-4.71,1.14-6.73,2.1,0,0,0,0,0,0-.03.02-.06.03-.09.05-.7.33-5.38,2.98-6.48,3.69-2.76,1.78-4.01,2.89-5.25,2.45-1.43-.51-1.88-2.75-2.05-4.02-.02-2.23.02-2.41-.11-3.38-1.43-10.84-8.54-18.74-8.54-18.74-7.53-8.36-17.03-10.27-19.82-10.79-12.24-2.27-21.81,2.5-25.31,4.32-12.12,6.27-17.58,16.55-20.62,22.28-8.25,15.53-7.6,30.23-7.24,38.16.32,7.1.91,17.85,7.06,29.83,2.32,4.52,6.82,13.04,16.48,20.01,3.89,2.81,12.79,9.23,25.51,9.22,3.96,0,13.69,0,21.48-6.28,4.51-3.63,5.5-7.05,9.62-7.65,4.77-.7,6.66,3.41,12.85,5.49,8.74,2.94,17.44-1.06,21.98-3.14,10.92-5.01,16.31-13.57,18.44-17.07,7.71-12.62,7-25.07,6.67-28.65ZM146.21,128.77c-1.56,1.54-8.93,8.4-17.66,7.06-9.77-1.49-11.63-11.78-18.44-11.18-6.09.53-6.14,8.89-15.31,14.13-6.38,3.65-14.97,4.52-21.78,1.96-13.38-5.02-16.86-22.14-18.54-30.41-1.07-5.28-5.11-25.1,6.87-40.52,3.03-3.9,10.34-13.31,20.31-12.07,8.46,1.06,15.15,9.32,16.09,17.07.78,6.43-2.52,11.51-8.44,20.6-7.92,12.18-12.83,13.67-13.93,21.58-.18,1.26-1.36,10.64,4.39,14.72,3.36,2.38,8.71,2.68,12.58.39,6.03-3.57,3.35-10.43,10.64-27.85,2.47-5.91,3.99-9.52,5.55-11.68.08-.08.17-.17.25-.25.55-.49,1.06-.67,1.42-.75,1.98-.41,4.49,1.43,6,4.71.72,1.58,1.47,3.48,2.34,5.67,1.76,4.44,3.09,7.8,3.92,12.77,1.47,8.8-.47,11.64,2.26,14.32,2.41,2.37,6.83,2.99,9.91,1.77.52-.21,1.65-.67,2.62-1.77,1.76-1.98,1.74-4.57,1.73-5.59-.07-7.73-11.83-16.14-10.83-24.43.68-5.63,7.19-10.84,12.56-10.5,7.56.48,11.68,11.86,12.56,18.44.23,1.73,1.57,13.26-7.06,21.78Z"/>
  </g>
</svg>